<?xml version="1.0" encoding="UTF-8"?><svg id="Layer_1" xmlns="http://www.w3.org/2000/svg" viewBox="0 0 774 882"><defs><style>.cls-1{fill:#036;}.cls-1,.cls-2,.cls-3,.cls-4,.cls-5,.cls-6,.cls-7,.cls-8,.cls-9,.cls-10,.cls-11,.cls-12,.cls-13,.cls-14,.cls-15,.cls-16,.cls-17,.cls-18,.cls-19,.cls-20,.cls-21,.cls-22,.cls-23,.cls-24,.cls-25,.cls-26,.cls-27,.cls-28,.cls-29,.cls-30,.cls-31,.cls-32,.cls-33,.cls-34,.cls-35,.cls-36,.cls-37,.cls-38,.cls-39,.cls-40,.cls-41,.cls-42,.cls-43,.cls-44,.cls-45,.cls-46,.cls-47,.cls-48,.cls-49,.cls-50,.cls-51,.cls-52,.cls-53,.cls-54,.cls-55,.cls-56,.cls-57,.cls-58,.cls-59,.cls-60,.cls-61,.cls-62,.cls-63,.cls-64,.cls-65,.cls-66,.cls-67,.cls-68,.cls-69,.cls-70,.cls-71,.cls-72,.cls-73,.cls-74,.cls-75,.cls-76,.cls-77,.cls-78,.cls-79,.cls-80,.cls-81,.cls-82,.cls-83,.cls-84,.cls-85,.cls-86,.cls-87,.cls-88,.cls-89,.cls-90,.cls-91{stroke:#000;stroke-miterlimit:10;}.cls-2{fill:#0c0;}.cls-3{fill:#0f9;}.cls-4{fill:#0cf;}.cls-5{fill:lime;}.cls-6{fill:#0f3;}.cls-7{fill:#003;}.cls-8{fill:#0c6;}.cls-9{fill:#3f0;}.cls-10{fill:#c06;}.cls-11{fill:#066;}.cls-12{fill:#ff0;}.cls-13{fill:#0fc;}.cls-14{fill:#60c;}.cls-15{fill:#099;}.cls-16{fill:#0f6;}.cls-17{fill:#f60;}.cls-18{fill:#9f0;}.cls-19{fill:#0c3;}.cls-20{fill:#c60;}.cls-21{fill:#03c;}.cls-22{fill:#03f;}.cls-23{fill:#6f0;}.cls-24{fill:#309;}.cls-25{fill:#090;}.cls-26{fill:#660;}.cls-27{fill:#cc0;}.cls-28{fill:#030;}.cls-29{fill:#900;}.cls-30{fill:#930;}.cls-31{fill:#390;}.cls-32{fill:#609;}.cls-33{fill:#c0f;}.cls-34{fill:#606;}.cls-35{fill:#009;}.cls-36{fill:#300;}.cls-37{fill:#303;}.cls-38{fill:#063;}.cls-39{fill:#960;}.cls-40{fill:#0c9;}.cls-41{fill:#039;}.cls-42{fill:#306;}.cls-43{fill:#603;}.cls-44{fill:#096;}.cls-45{fill:#903;}.cls-46{fill:#0cc;}.cls-47{fill:#093;}.cls-48{fill:#906;}.cls-49{fill:#f30;}.cls-50{fill:#30c;}.cls-51{fill:#09f;}.cls-52{fill:#f0c;}.cls-53{fill:#3c0;}.cls-54{fill:#990;}.cls-55{fill:#90f;}.cls-56{fill:#006;}.cls-57{fill:#033;}.cls-58{fill:red;}.cls-59{fill:#c30;}.cls-60{fill:none;}.cls-61{fill:#00c;}.cls-62{fill:#360;}.cls-63{fill:#6c0;}.cls-64{fill:#60f;}.cls-65{fill:#c03;}.cls-66{fill:#690;}.cls-67{fill:#f0f;}.cls-68{fill:#f09;}.cls-69{fill:#90c;}.cls-70{fill:#c90;}.cls-71{fill:#06f;}.cls-72{fill:#f03;}.cls-73{fill:#600;}.cls-74{fill:#f90;}.cls-75{fill:#c09;}.cls-76{fill:#c0c;}.cls-77{fill:aqua;}.cls-78{fill:#630;}.cls-80{fill:#060;}.cls-81{fill:#069;}.cls-82{fill:#909;}.cls-83{fill:#fc0;}.cls-84{fill:blue;}.cls-85{fill:#cf0;}.cls-86{fill:#9c0;}.cls-87{fill:#330;}.cls-88{fill:#f06;}.cls-89{fill:#06c;}.cls-90{fill:#c00;}.cls-91{fill:#09c;}</style></defs><polygon class="cls-79" points="450 405 387.65 441 325.3 405.37 325.3 405 387.65 369 450 405"/><polygon class="cls-79" points="449.35 405 449.35 477 448.7 477.38 387 513 387 441 449.35 405"/><polygon class="cls-79" points="387 441 387 513 386.68 512.81 324.65 477 324.65 405.37 387 441"/><line class="cls-60" x1="324.65" y1="405.37" x2="324" y2="405"/><polygon class="cls-28" points="513 369 450.65 405 388.3 369.37 388.3 369 450.65 333 513 369"/><polygon class="cls-80" points="576 333 513.65 369 451.3 333.37 451.3 333 513.65 297 576 333"/><polygon class="cls-25" points="639 297 576.65 333 514.3 297.37 514.3 297 576.65 261 639 297"/><polygon class="cls-2" points="702 261 639.65 297 577.3 261.37 577.3 261 639.65 225 702 261"/><polygon class="cls-5" points="765 225 702.65 261 640.3 225.37 640.3 225 702.65 189 765 225"/><polygon class="cls-28" points="512.35 369 512.35 441 450 477 450 405 512.35 369"/><polygon class="cls-80" points="576 333 576 405 513.65 441 513.65 369 576 333"/><polygon class="cls-25" points="638.35 297 638.35 369 576 405 576 333 638.35 297"/><polygon class="cls-2" points="701.35 261 701.35 333 639 369 639 297 701.35 261"/><polygon class="cls-5" points="764.35 225 764.35 297 702 333 702 261 764.35 225"/><polygon class="cls-7" points="385.7 369 323.35 405 261 369.37 261 369 323.35 333 385.7 369"/><polygon class="cls-57" points="449.35 333 387 369 324.65 333.37 324.65 333 387 297 449.35 333"/><polygon class="cls-38" points="512.35 297 450 333 387.65 297.37 387.65 297 450 261 512.35 297"/><polygon class="cls-47" points="575.35 261 513 297 450.65 261.37 450.65 261 513 225 575.35 261"/><polygon class="cls-19" points="638.35 225 576 261 513.65 225.37 513.65 225 576 189 638.35 225"/><polygon class="cls-6" points="701.35 189 639 225 576.65 189.37 576.65 189 639 153 701.35 189"/><polygon class="cls-56" points="323.35 333 261 369 198.65 333.37 198.65 333 261 297 323.35 333"/><polygon class="cls-1" points="387 297 324.65 333 262.3 297.37 262.3 297 324.65 261 387 297"/><polygon class="cls-11" points="450 261 387.65 297 325.3 261.37 325.3 261 387.65 225 450 261"/><polygon class="cls-44" points="513 225 450.65 261 388.3 225.37 388.3 225 450.65 189 513 225"/><polygon class="cls-8" points="576 189 513.65 225 451.3 189.37 451.3 189 513.65 153 576 189"/><polygon class="cls-16" points="639 153 576.65 189 514.3 153.37 514.3 153 576.65 117 639 153"/><polygon class="cls-35" points="259.7 297 197.35 333 135 297.37 135 297 197.35 261 259.7 297"/><polygon class="cls-41" points="323.35 261 261 297 198.65 261.37 198.65 261 261 225 323.35 261"/><polygon class="cls-81" points="386.35 225 324 261 261.65 225.37 261.65 225 324 189 386.35 225"/><polygon class="cls-15" points="449.35 189 387 225 324.65 189.37 324.65 189 387 153 449.35 189"/><polygon class="cls-40" points="512.35 153 450 189 387.65 153.37 387.65 153 450 117 512.35 153"/><polygon class="cls-3" points="575.35 117 513 153 450.65 117.37 450.65 117 513 81 575.35 117"/><polygon class="cls-61" points="197.35 261 135 297 72.65 261.37 72.65 261 135 225 197.35 261"/><polygon class="cls-21" points="261 225 198.65 261 136.3 225.37 136.3 225 198.65 189 261 225"/><polygon class="cls-89" points="324 189 261.65 225 199.3 189.37 199.3 189 261.65 153 324 189"/><polygon class="cls-91" points="387 153 324.65 189 262.3 153.37 262.3 153 324.65 117 387 153"/><polygon class="cls-46" points="450 117 387.65 153 325.3 117.37 325.3 117 387.65 81 450 117"/><polygon class="cls-13" points="513 81 450.65 117 388.3 81.37 388.3 81 450.65 45 513 81"/><polygon class="cls-84" points="133.7 225 71.35 261 9 225.37 9 225 71.35 189 133.7 225"/><polygon class="cls-22" points="197.35 189 135 225 72.65 189.37 72.65 189 135 153 197.35 189"/><polygon class="cls-71" points="260.35 153 198 189 135.65 153.37 135.65 153 198 117 260.35 153"/><polygon class="cls-51" points="323.35 117 261 153 198.65 117.37 198.65 117 261 81 323.35 117"/><polygon class="cls-4" points="386.35 81 324 117 261.65 81.37 261.65 81 324 45 386.35 81"/><polygon class="cls-77" points="449.35 45 387 81 324.65 45.37 324.65 45 387 9 449.35 45"/><polygon class="cls-7" points="324 404.63 324 476.63 261.65 440.63 261.65 369 324 404.63"/><polygon class="cls-56" points="261 369 261 441 198.65 405 198.65 333.37 261 369"/><polygon class="cls-35" points="198 333 198 405 135.65 369 135.65 297.37 198 333"/><polygon class="cls-61" points="135 297 135 369 72.65 333 72.65 261.37 135 297"/><polygon class="cls-84" points="72 260.63 72 332.63 9.65 296.63 9.65 225 72 260.63"/><polygon class="cls-36" points="449.35 477 449.35 549 387 585 387 513 449.35 477"/><polygon class="cls-36" points="386.35 513 386.35 585 324 549 324 477.37 386.35 513"/><polygon class="cls-87" points="511.7 441 511.7 513 449.35 549 449.35 477 511.7 441"/><polygon class="cls-62" points="575.35 405 575.35 477 513 513 513 441 575.35 405"/><polygon class="cls-31" points="637.7 369 637.7 441 575.35 477 575.35 405 637.7 369"/><polygon class="cls-53" points="700.7 333 700.7 405 638.35 441 638.35 369 700.7 333"/><polygon class="cls-9" points="763.7 297 763.7 369 701.35 405 701.35 333 763.7 297"/><polygon class="cls-37" points="323.35 477 323.35 549 261 513 261 441.37 323.35 477"/><polygon class="cls-42" points="261 441 261 513 198.65 477 198.65 405.37 261 441"/><polygon class="cls-24" points="198 405 198 477 135.65 441 135.65 369.37 198 405"/><polygon class="cls-50" points="135 369 135 441 72.65 405 72.65 333.37 135 369"/><polygon class="cls-50" points="72 333 72 405 9.65 369 9.65 297.37 72 333"/><polygon class="cls-73" points="449.35 549 449.35 621 387 657 387 585 449.35 549"/><polygon class="cls-73" points="386.35 585 386.35 657 324 621 324 549.37 386.35 585"/><polygon class="cls-78" points="512.35 513 512.35 585 450 621 450 549 512.35 513"/><polygon class="cls-26" points="576 477 576 549 513.65 585 513.65 513 576 477"/><polygon class="cls-66" points="638.35 441 638.35 513 576 549 576 477 638.35 441"/><polygon class="cls-63" points="701.35 405 701.35 477 639 513 639 441 701.35 405"/><polygon class="cls-23" points="764.35 369 764.35 441 702 477 702 405 764.35 369"/><polygon class="cls-43" points="323.35 549 323.35 621 261 585 261 513.37 323.35 549"/><polygon class="cls-34" points="260.35 513 260.35 585 198 549 198 477.37 260.35 513"/><polygon class="cls-32" points="198 476.63 198 548.63 135.65 512.63 135.65 441 198 476.63"/><polygon class="cls-14" points="135 441 135 513 72.65 477 72.65 405.37 135 441"/><polygon class="cls-64" points="72 404.63 72 476.63 9.65 440.63 9.65 369 72 404.63"/><polygon class="cls-29" points="449.35 621 449.35 693 387 729 387 657 449.35 621"/><polygon class="cls-29" points="386.35 656.63 386.35 728.63 324 692.63 324 621 386.35 656.63"/><polygon class="cls-30" points="513 585 513 657 450.65 693 450.65 621 513 585"/><polygon class="cls-39" points="576.65 549 576.65 621 514.3 657 514.3 585 576.65 549"/><polygon class="cls-54" points="639 513 639 585 576.65 621 576.65 549 639 513"/><polygon class="cls-86" points="702 477 702 549 639.65 585 639.65 513 702 477"/><polygon class="cls-18" points="765 441 765 513 702.65 549 702.65 477 765 441"/><polygon class="cls-45" points="324 621 324 693 261.65 657 261.65 585.37 324 621"/><polygon class="cls-48" points="261 585 261 657 198.65 621 198.65 549.37 261 585"/><polygon class="cls-82" points="198.65 548.63 198.65 620.63 136.3 584.63 136.3 513 198.65 548.63"/><polygon class="cls-69" points="135.65 513 135.65 585 73.3 549 73.3 477.37 135.65 513"/><polygon class="cls-55" points="72.65 476.63 72.65 548.63 10.3 512.63 10.3 441 72.65 476.63"/><polygon class="cls-90" points="450 693 450 765 387.65 801 387.65 729 450 693"/><polygon class="cls-90" points="386.35 729 386.35 801 324 765 324 693.37 386.35 729"/><polygon class="cls-59" points="513 657 513 729 450.65 765 450.65 693 513 657"/><polygon class="cls-20" points="576.65 621 576.65 693 514.3 729 514.3 657 576.65 621"/><polygon class="cls-70" points="639 585 639 657 576.65 693 576.65 621 639 585"/><polygon class="cls-27" points="702 549 702 621 639.65 657 639.65 585 702 549"/><polygon class="cls-85" points="765 513 765 585 702.65 621 702.65 549 765 513"/><polygon class="cls-65" points="324 693 324 765 261.65 729 261.65 657.37 324 693"/><polygon class="cls-10" points="261 657 261 729 198.65 693 198.65 621.37 261 657"/><polygon class="cls-75" points="198.65 620.63 198.65 692.63 136.3 656.63 136.3 585 198.65 620.63"/><polygon class="cls-76" points="135.65 585 135.65 657 73.3 621 73.3 549.37 135.65 585"/><polygon class="cls-33" points="72.65 548.63 72.65 620.63 10.3 584.63 10.3 513 72.65 548.63"/><polygon class="cls-58" points="449.35 765 449.35 837 387 873 387 801 449.35 765"/><polygon class="cls-58" points="386.35 801 386.35 873 324 837 324 765.37 386.35 801"/><polygon class="cls-49" points="513 729 513 801 450.65 837 450.65 765 513 729"/><polygon class="cls-17" points="576.65 693 576.65 765 514.3 801 514.3 729 576.65 693"/><polygon class="cls-74" points="639 657 639 729 576.65 765 576.65 693 639 657"/><polygon class="cls-83" points="702 621 702 693 639.65 729 639.65 657 702 621"/><polygon class="cls-12" points="765 585 765 657 702.65 693 702.65 621 765 585"/><polygon class="cls-72" points="324 765 324 837 261.65 801 261.65 729.37 324 765"/><polygon class="cls-88" points="261 729 261 801 198.65 765 198.65 693.37 261 729"/><polygon class="cls-68" points="198.65 692.63 198.65 764.63 136.3 728.63 136.3 657 198.65 692.63"/><polygon class="cls-52" points="135.65 657 135.65 729 73.3 693 73.3 621.37 135.65 657"/><polygon class="cls-67" points="72.65 620.63 72.65 692.63 10.3 656.63 10.3 585 72.65 620.63"/></svg>
