<?xml version="1.0" encoding="UTF-8"?><svg id="Layer_1" xmlns="http://www.w3.org/2000/svg" viewBox="0 0 771 879"><defs><style>.cls-1{fill:#fc3;}.cls-1,.cls-2,.cls-3,.cls-4,.cls-5,.cls-6,.cls-7,.cls-8,.cls-9,.cls-10,.cls-11,.cls-12,.cls-13,.cls-14,.cls-15,.cls-16,.cls-17,.cls-18,.cls-19,.cls-20,.cls-21,.cls-22,.cls-23,.cls-24,.cls-25,.cls-26,.cls-27,.cls-28,.cls-29,.cls-30,.cls-31,.cls-32,.cls-33,.cls-34,.cls-35,.cls-36,.cls-37,.cls-38,.cls-39,.cls-40,.cls-41,.cls-42,.cls-43,.cls-44,.cls-45,.cls-46,.cls-47,.cls-48,.cls-49,.cls-50,.cls-51,.cls-52,.cls-53,.cls-54,.cls-55,.cls-56,.cls-57,.cls-58,.cls-59,.cls-60,.cls-61,.cls-62,.cls-63,.cls-64,.cls-65,.cls-66,.cls-67,.cls-68,.cls-69,.cls-70,.cls-71,.cls-72,.cls-73,.cls-74,.cls-75,.cls-76,.cls-77,.cls-78,.cls-79,.cls-80,.cls-81,.cls-82,.cls-83,.cls-84,.cls-85,.cls-86,.cls-87,.cls-88,.cls-89,.cls-90,.cls-91,.cls-92{stroke:#000;stroke-miterlimit:10;}.cls-2{fill:#3f3;}.cls-3{fill:#0f9;}.cls-4{fill:#0cf;}.cls-5{fill:lime;}.cls-6{fill:#0f3;}.cls-7{fill:#f33;}.cls-8{fill:#fcf;}.cls-9{fill:#93f;}.cls-10{fill:#fcc;}.cls-11{fill:#9ff;}.cls-12{fill:#66f;}.cls-13{fill:#3f0;}.cls-14{fill:#c6f;}.cls-15{fill:#9f9;}.cls-16{fill:#ccf;}.cls-17{fill:#99f;}.cls-18{fill:#ff0;}.cls-19{fill:#0fc;}.cls-20{fill:#f39;}.cls-21{fill:#cf9;}.cls-22{fill:#f69;}.cls-23{fill:#0f6;}.cls-24{fill:#f66;}.cls-25{fill:#f60;}.cls-26{fill:#ff6;}.cls-27{fill:#c3f;}.cls-28{fill:#9f0;}.cls-29{fill:#03f;}.cls-30{fill:#9f6;}.cls-31{fill:#69f;}.cls-32{fill:#6f0;}.cls-33{fill:#6f6;}.cls-34{fill:#63f;}.cls-35{fill:#6f9;}.cls-36{fill:#36f;}.cls-37{fill:#39f;}.cls-38{fill:#6ff;}.cls-39{fill:#9cf;}.cls-40{fill:#c0f;}.cls-41{fill:#3fc;}.cls-42{fill:#f3f;}.cls-43{fill:#f96;}.cls-44{fill:#f93;}.cls-45{fill:#ff3;}.cls-46{fill:#33f;}.cls-47{fill:#fff;}.cls-48{fill:#96f;}.cls-49{fill:#9f3;}.cls-50{fill:#f63;}.cls-51{fill:#3ff;}.cls-52{fill:#f30;}.cls-53{fill:#09f;}.cls-54{fill:#f0c;}.cls-55{fill:#3cf;}.cls-56{fill:#f99;}.cls-57{fill:#90f;}.cls-58{fill:#cf6;}.cls-59{fill:red;}.cls-60{fill:#3f6;}.cls-61{fill:none;}.cls-62{fill:#6fc;}.cls-63{fill:#cf3;}.cls-64{fill:#f9f;}.cls-65{fill:#f9c;}.cls-66{fill:#ff9;}.cls-67{fill:#60f;}.cls-68{fill:#c9f;}.cls-69{fill:#3f9;}.cls-70{fill:#cff;}.cls-71{fill:#f0f;}.cls-72{fill:#30f;}.cls-73{fill:#f09;}.cls-74{fill:#9fc;}.cls-75{fill:#06f;}.cls-76{fill:#f03;}.cls-77{fill:#6f3;}.cls-78{fill:#f6f;}.cls-79{fill:#f3c;}.cls-80{fill:#f90;}.cls-81{fill:#ffc;}.cls-82{fill:#fc6;}.cls-83{fill:aqua;}.cls-84{fill:#6cf;}.cls-85{fill:#cfc;}.cls-86{fill:#fc0;}.cls-87{fill:#fc9;}.cls-88{fill:blue;}.cls-89{fill:#cf0;}.cls-90{fill:#f06;}.cls-91{fill:#f6c;}.cls-92{fill:#f36;}</style></defs><polygon class="cls-47" points="449.35 402 387 438 324.65 402.37 324.65 402 387 366 449.35 402"/><polygon class="cls-47" points="450 402 450 474 449.35 474.38 387.65 510 387.65 438 450 402"/><polygon class="cls-47" points="387 437.63 387 509.63 386.68 509.44 324.65 473.63 324.65 402 387 437.63"/><line class="cls-61" x1="324.65" y1="402.37" x2="324" y2="402"/><polygon class="cls-70" points="513 366 450.65 402 388.3 366.37 388.3 366 450.65 330 513 366"/><polygon class="cls-11" points="576 330 513.65 366 451.3 330.37 451.3 330 513.65 294 576 330"/><polygon class="cls-38" points="639 294 576.65 330 514.3 294.37 514.3 294 576.65 258 639 294"/><polygon class="cls-51" points="702 258 639.65 294 577.3 258.37 577.3 258 639.65 222 702 258"/><polygon class="cls-83" points="765 222 702.65 258 640.3 222.37 640.3 222 702.65 186 765 222"/><polygon class="cls-70" points="513 366 513 438 450.65 474 450.65 402 513 366"/><polygon class="cls-11" points="576 330 576 402 513.65 438 513.65 366 576 330"/><polygon class="cls-38" points="638.35 294 638.35 366 576 402 576 330 638.35 294"/><polygon class="cls-51" points="701.35 258 701.35 330 639 366 639 294 701.35 258"/><polygon class="cls-83" points="764.35 222 764.35 294 702 330 702 258 764.35 222"/><polygon class="cls-81" points="387 366 324.65 402 262.3 366.37 262.3 366 324.65 330 387 366"/><polygon class="cls-85" points="449.35 330 387 366 324.65 330.37 324.65 330 387 294 449.35 330"/><polygon class="cls-74" points="512.35 294 450 330 387.65 294.37 387.65 294 450 258 512.35 294"/><polygon class="cls-62" points="575.35 258 513 294 450.65 258.37 450.65 258 513 222 575.35 258"/><polygon class="cls-41" points="638.35 222 576 258 513.65 222.37 513.65 222 576 186 638.35 222"/><polygon class="cls-19" points="701.35 186 639 222 576.65 186.37 576.65 186 639 150 701.35 186"/><polygon class="cls-66" points="324 330 261.65 366 199.3 330.37 199.3 330 261.65 294 324 330"/><polygon class="cls-21" points="387 294 324.65 330 262.3 294.37 262.3 294 324.65 258 387 294"/><polygon class="cls-15" points="450 258 387.65 294 325.3 258.37 325.3 258 387.65 222 450 258"/><polygon class="cls-35" points="513 222 450.65 258 388.3 222.37 388.3 222 450.65 186 513 222"/><polygon class="cls-69" points="576 186 513.65 222 451.3 186.37 451.3 186 513.65 150 576 186"/><polygon class="cls-3" points="639 150 576.65 186 514.3 150.37 514.3 150 576.65 114 639 150"/><polygon class="cls-26" points="261 294 198.65 330 136.3 294.37 136.3 294 198.65 258 261 294"/><polygon class="cls-58" points="324 258 261.65 294 199.3 258.37 199.3 258 261.65 222 324 258"/><polygon class="cls-30" points="386.35 222 324 258 261.65 222.37 261.65 222 324 186 386.35 222"/><polygon class="cls-33" points="449.35 186 387 222 324.65 186.37 324.65 186 387 150 449.35 186"/><polygon class="cls-60" points="512.35 150 450 186 387.65 150.37 387.65 150 450 114 512.35 150"/><polygon class="cls-23" points="575.35 114 513 150 450.65 114.37 450.65 114 513 78 575.35 114"/><polygon class="cls-45" points="198 258 135.65 294 73.3 258.37 73.3 258 135.65 222 198 258"/><polygon class="cls-63" points="261 222 198.65 258 136.3 222.37 136.3 222 198.65 186 261 222"/><polygon class="cls-49" points="324 186 261.65 222 199.3 186.37 199.3 186 261.65 150 324 186"/><polygon class="cls-77" points="387 150 324.65 186 262.3 150.37 262.3 150 324.65 114 387 150"/><polygon class="cls-2" points="450 114 387.65 150 325.3 114.37 325.3 114 387.65 78 450 114"/><polygon class="cls-6" points="513 78 450.65 114 388.3 78.37 388.3 78 450.65 42 513 78"/><polygon class="cls-18" points="135 222 72.65 258 10.3 222.37 10.3 222 72.65 186 135 222"/><polygon class="cls-89" points="198 186 135.65 222 73.3 186.37 73.3 186 135.65 150 198 186"/><polygon class="cls-28" points="261 150 198.65 186 136.3 150.37 136.3 150 198.65 114 261 150"/><polygon class="cls-32" points="324 114 261.65 150 199.3 114.37 199.3 114 261.65 78 324 114"/><polygon class="cls-13" points="386.35 78 324 114 261.65 78.37 261.65 78 324 42 386.35 78"/><polygon class="cls-5" points="449.35 42 387 78 324.65 42.37 324.65 42 387 6 449.35 42"/><polygon class="cls-81" points="324 402 324 474 261.65 438 261.65 366.37 324 402"/><polygon class="cls-66" points="261 365.63 261 437.63 198.65 401.63 198.65 330 261 365.63"/><polygon class="cls-26" points="198 330 198 402 135.65 366 135.65 294.37 198 330"/><polygon class="cls-45" points="135 293.63 135 365.63 72.65 329.63 72.65 258 135 293.63"/><polygon class="cls-18" points="72 258 72 330 9.65 294 9.65 222.37 72 258"/><polygon class="cls-8" points="450 474 450 546 387.65 582 387.65 510 450 474"/><polygon class="cls-8" points="387 509.63 387 581.63 324.65 545.63 324.65 474 387 509.63"/><polygon class="cls-16" points="512.35 438 512.35 510 450 546 450 474 512.35 438"/><polygon class="cls-39" points="576 402 576 474 513.65 510 513.65 438 576 402"/><polygon class="cls-84" points="637.7 366 637.7 438 575.35 474 575.35 402 637.7 366"/><polygon class="cls-55" points="700.7 330 700.7 402 638.35 438 638.35 366 700.7 330"/><polygon class="cls-4" points="763.7 294 763.7 366 701.35 402 701.35 330 763.7 294"/><polygon class="cls-10" points="324 473.63 324 545.63 261.65 509.63 261.65 438 324 473.63"/><polygon class="cls-87" points="261 437.63 261 509.63 198.65 473.63 198.65 402 261 437.63"/><polygon class="cls-82" points="198 401.63 198 473.63 135.65 437.63 135.65 366 198 401.63"/><polygon class="cls-1" points="135 365.63 135 437.63 72.65 401.63 72.65 330 135 365.63"/><polygon class="cls-86" points="72 330 72 402 9.65 366 9.65 294.37 72 330"/><polygon class="cls-64" points="450 546 450 618 387.65 654 387.65 582 450 546"/><polygon class="cls-64" points="387 581.26 387 653.26 324.65 617.26 324.65 545.63 387 581.26"/><polygon class="cls-68" points="513 510 513 582 450.65 618 450.65 546 513 510"/><polygon class="cls-17" points="576 474 576 546 513.65 582 513.65 510 576 474"/><polygon class="cls-31" points="638.35 438 638.35 510 576 546 576 474 638.35 438"/><polygon class="cls-37" points="701.35 402 701.35 474 639 510 639 438 701.35 402"/><polygon class="cls-53" points="764.35 366 764.35 438 702 474 702 402 764.35 366"/><polygon class="cls-65" points="324 545.63 324 617.63 261.65 581.63 261.65 510 324 545.63"/><polygon class="cls-56" points="261 510 261 582 198.65 546 198.65 474.37 261 510"/><polygon class="cls-43" points="198 473.63 198 545.63 135.65 509.63 135.65 438 198 473.63"/><polygon class="cls-44" points="135 438 135 510 72.65 474 72.65 402.37 135 438"/><polygon class="cls-80" points="72 401.63 72 473.63 9.65 437.63 9.65 366 72 401.63"/><polygon class="cls-78" points="450 618 450 690 387.65 726 387.65 654 450 618"/><polygon class="cls-78" points="387 653.63 387 725.63 324.65 689.63 324.65 618 387 653.63"/><polygon class="cls-14" points="513 582 513 654 450.65 690 450.65 618 513 582"/><polygon class="cls-48" points="576.65 546 576.65 618 514.3 654 514.3 582 576.65 546"/><polygon class="cls-12" points="639 510 639 582 576.65 618 576.65 546 639 510"/><polygon class="cls-36" points="702 474 702 546 639.65 582 639.65 510 702 474"/><polygon class="cls-75" points="765 438 765 510 702.65 546 702.65 474 765 438"/><polygon class="cls-91" points="324 617.63 324 689.63 261.65 653.63 261.65 582 324 617.63"/><polygon class="cls-22" points="261 582 261 654 198.65 618 198.65 546.37 261 582"/><polygon class="cls-24" points="198.65 545.63 198.65 617.63 136.3 581.63 136.3 510 198.65 545.63"/><polygon class="cls-50" points="135.65 510 135.65 582 73.3 546 73.3 474.37 135.65 510"/><polygon class="cls-25" points="72.65 473.63 72.65 545.63 10.3 509.63 10.3 438 72.65 473.63"/><polygon class="cls-42" points="450 690 450 762 387.65 798 387.65 726 450 690"/><polygon class="cls-42" points="387.65 725.26 387.65 797.26 325.3 761.26 325.3 689.63 387.65 725.26"/><polygon class="cls-27" points="513 654 513 726 450.65 762 450.65 690 513 654"/><polygon class="cls-9" points="576.65 618 576.65 690 514.3 726 514.3 654 576.65 618"/><polygon class="cls-34" points="639 582 639 654 576.65 690 576.65 618 639 582"/><polygon class="cls-46" points="702 546 702 618 639.65 654 639.65 582 702 546"/><polygon class="cls-29" points="765 510 765 582 702.65 618 702.65 546 765 510"/><polygon class="cls-79" points="324 689.63 324 761.63 261.65 725.63 261.65 654 324 689.63"/><polygon class="cls-20" points="261 654 261 726 198.65 690 198.65 618.37 261 654"/><polygon class="cls-92" points="198.65 617.63 198.65 689.63 136.3 653.63 136.3 582 198.65 617.63"/><polygon class="cls-7" points="135.65 582 135.65 654 73.3 618 73.3 546.37 135.65 582"/><polygon class="cls-52" points="72.65 545.63 72.65 617.63 10.3 581.63 10.3 510 72.65 545.63"/><polygon class="cls-71" points="450 762 450 834 387.65 870 387.65 798 450 762"/><polygon class="cls-71" points="387.65 797.63 387.65 869.63 325.3 833.63 325.3 762 387.65 797.63"/><polygon class="cls-40" points="513 726 513 798 450.65 834 450.65 762 513 726"/><polygon class="cls-57" points="576.65 690 576.65 762 514.3 798 514.3 726 576.65 690"/><polygon class="cls-67" points="639 654 639 726 576.65 762 576.65 690 639 654"/><polygon class="cls-72" points="702 618 702 690 639.65 726 639.65 654 702 618"/><polygon class="cls-88" points="765 582 765 654 702.65 690 702.65 618 765 582"/><polygon class="cls-54" points="324 762 324 834 261.65 798 261.65 726.37 324 762"/><polygon class="cls-73" points="261 726 261 798 198.65 762 198.65 690.37 261 726"/><polygon class="cls-90" points="198.65 689.63 198.65 761.63 136.3 725.63 136.3 654 198.65 689.63"/><polygon class="cls-76" points="135.65 654 135.65 726 73.3 690 73.3 618.37 135.65 654"/><polygon class="cls-59" points="72.65 617.63 72.65 689.63 10.3 653.63 10.3 582 72.65 617.63"/></svg>
